<?xml version="1.0" encoding="UTF-8"?> <!-- Generator: Adobe Illustrator 21.0.2, SVG Export Plug-In . SVG Version: 6.00 Build 0) --> <svg xmlns="http://www.w3.org/2000/svg" xmlns:xlink="http://www.w3.org/1999/xlink" id="Layer_1" x="0px" y="0px" width="435.5px" height="598px" viewBox="0 0 435.5 598" style="enable-background:new 0 0 435.5 598;" xml:space="preserve"> <g> <g> <g> <path d="M25,102.7h113.3c48.1,0,94.7,22.8,94.7,94.7c0,33.6-20.2,67.3-53.8,77.1v1c45.5,10.9,65.7,45.5,65.7,91.1 c0,75-42.4,105.6-119.5,105.6H25V102.7z M70.6,262.1h52.3c19.1,0,62.6-4.6,62.6-61.6c0-38.3-19.1-60.5-63.7-60.5H70.6V262.1z M70.6,434.9h62.1c48.1,0,64.7-32.6,64.7-68.3c0-50.7-32.6-70.4-72.4-70.4H70.6V434.9z"></path> </g> <g> <path d="M367.5,202c0-37.5-13.9-63.5-57-63.5c-38,0-60.6,20-60.6,58c0,100.6,173.1,40.5,173.1,171.1c0,82.5-62.2,106.1-114,106.1 c-85.8,0-111-43-111-119.1h45.2c0,40,2.6,83,68.8,83c36,0,63.7-25,63.7-63c0-101.1-173.1-42.5-173.1-173.6 c0-33,14.4-98.6,107.4-98.6c69.9,0,101.7,34,102.7,99.6H367.5z"></path> </g> <g> <path d="M24.8,19.3h16.3c8,0,13.7,3,13.7,12.2c0,5.2-2.5,9.2-7.3,10.5v0.1c5.3,0.7,8.8,4.8,8.8,11.2c0,7.6-3.7,14.1-15,14.1H24.8 V19.3z M34.6,39.1h2.8c5.3,0,7.8-1.8,7.8-6.3c0-4.6-2.2-6.3-7-6.3h-3.5V39.1z M34.6,60.4h3.8c4.7,0,7.8-1.7,7.8-7.3 c0-5.6-3.2-7.2-7.4-7.2h-4.2V60.4z"></path> <path d="M70.3,67.5V19.3H80v48.2H70.3z"></path> <path d="M94.6,19.3h16.3c8,0,13.7,3,13.7,12.2c0,5.2-2.5,9.2-7.3,10.5v0.1c5.3,0.7,8.8,4.8,8.8,11.2c0,7.6-3.7,14.1-15,14.1H94.6 V19.3z M104.3,39.1h2.8c5.3,0,7.8-1.8,7.8-6.3c0-4.6-2.2-6.3-7-6.3h-3.5V39.1z M104.3,60.4h3.8c4.7,0,7.8-1.7,7.8-7.3 c0-5.6-3.2-7.2-7.4-7.2h-4.2V60.4z"></path> <path d="M139.6,67.5V19.3h9.7v40.2h17.2v8H139.6z"></path> <path d="M178.7,67.5V19.3h9.7v48.2H178.7z"></path> <path d="M218.5,18.4c14.6,0,16.4,10.4,16.4,25c0,14.6-1.8,25-16.4,25c-14.6,0-16.4-10.4-16.4-25 C202.1,28.8,203.9,18.4,218.5,18.4z M218.5,61.3c5.7,0,6.7-4.9,6.7-17.9c0-12.9-1-17.9-6.7-17.9c-5.7,0-6.7,5-6.7,17.9 C211.8,56.4,212.7,61.3,218.5,61.3z"></path> <path d="M276.2,19.3v8h-10.5v40.2H256V27.3h-10.5v-8H276.2z"></path> <path d="M314.8,19.3v8h-17.2v11.3h16.2v8h-16.2v13h17.9v8h-27.6V19.3H314.8z"></path> <path d="M348.3,35.6c0-7-1.4-10.1-5.8-10.1c-4.9,0-6.1,4.9-6.1,18.6c0,14.6,2,17.2,6.2,17.2c3.5,0,6.1-1.8,6.1-12.2h9.7 c0,10.4-2.6,19.4-15.3,19.4c-14.6,0-16.4-10.4-16.4-25c0-14.6,1.8-25,16.4-25c13.9,0,14.9,10.2,14.9,17.2H348.3z"></path> <path d="M380.8,19.3h12l12.8,48.2h-10.1l-2.2-10.2h-12.8l-2.2,10.2H368L380.8,19.3z M382.1,49.4h9.4l-4.7-21.7h-0.1L382.1,49.4z"></path> </g> </g> <g> <path d="M24.9,539.8h3.2c1.4,0,2,0.2,2.2,0.5c0.1,0,0.3,0.3,0.3,1.6v26.8c0,1.3-0.3,1.7-0.4,1.8c-0.2,0.1-0.6,0.4-1.9,0.4h-3.5 v2.5H42v-2.5h-3.5c-0.9,0-1.5-0.2-1.8-0.5c-0.1-0.1-0.3-0.4-0.3-1.7v-26.8c0-1.2,0.2-1.6,0.4-1.7c0.1-0.1,0.6-0.4,2.1-0.4H42v-2.5 H24.9V539.8z"></path> <path d="M72.4,554.4c2.2-0.8,3.8-1.8,5-3c1.4-1.5,2.1-3.3,2.1-5.4c0-2.5-1-4.6-3-6.3c-2-1.6-4.9-2.5-8.6-2.5H49.1v2.5h3.5 c0.7,0,1.2,0.2,1.5,0.4c0.3,0.3,0.5,0.7,0.5,1.2v28.4c0,0.1,0,0.3-0.5,0.7c-0.3,0.2-0.9,0.4-1.7,0.4h-3.3v2.5h18.3 c2.8,0,5.4-0.5,7.7-1.5c2.3-0.9,3.9-2.1,4.9-3.6c1-1.4,1.5-3,1.5-4.9c0-2.4-0.9-4.4-2.6-6C77.4,556.2,75.2,555.1,72.4,554.4z M71.4,551.8c-1.1,1.1-2.7,1.7-4.7,1.7h-6.4v-12.3c0-0.5,0.2-0.9,0.5-1.1c0.2-0.1,1-0.4,3.4-0.4c2.7,0,4.6,0.2,5.6,0.6 c1,0.4,1.8,1,2.4,1.9c0.5,0.9,0.8,2.2,0.8,3.8C73.2,548.8,72.6,550.7,71.4,551.8z M60.4,556h6.9c2.4,0,4.2,0.7,5.6,2 c1.3,1.3,2,3.2,2,5.5c0,2.5-0.7,4.4-1.9,5.6c-1.3,1.2-3.3,1.8-6.1,1.8h-4.3c-1.1,0-1.6-0.2-1.8-0.4c-0.3-0.2-0.4-0.6-0.4-1.2V556z "></path> <path d="M111.5,554.4c2.2-0.8,3.9-1.8,5-3c1.4-1.5,2.1-3.3,2.1-5.4c0-2.5-1-4.6-3.1-6.3c-2-1.6-4.9-2.5-8.5-2.5H88.2v2.5h3.5 c0.7,0,1.2,0.2,1.5,0.4c0.3,0.3,0.5,0.7,0.5,1.2v28.4c0,0.1,0,0.3-0.4,0.7c-0.3,0.2-0.9,0.4-1.7,0.4h-3.3v2.5h18.3 c2.9,0,5.4-0.5,7.7-1.5c2.3-0.9,3.9-2.1,4.9-3.6c1-1.4,1.5-3,1.5-4.9c0-2.4-0.9-4.4-2.6-6C116.5,556.2,114.3,555.1,111.5,554.4z M110.6,551.8c-1.2,1.1-2.7,1.7-4.7,1.7h-6.4v-12.3c0-0.5,0.2-0.9,0.5-1.1c0.2-0.1,1-0.4,3.4-0.4c2.7,0,4.6,0.2,5.6,0.6 c1,0.4,1.8,1,2.4,1.9c0.5,0.9,0.8,2.2,0.8,3.8C112.3,548.8,111.7,550.7,110.6,551.8z M99.5,556h6.9c2.4,0,4.2,0.7,5.6,2 c1.3,1.3,2,3.2,2,5.5c0,2.5-0.6,4.4-1.9,5.6c-1.3,1.2-3.3,1.8-6,1.8h-4.3c-1.1,0-1.6-0.2-1.8-0.4c-0.3-0.2-0.4-0.6-0.4-1.2V556z"></path> <path d="M146.5,539.8h2c0.9,0,1.6,0.2,2.1,0.6c0.5,0.4,0.7,1,0.7,1.7c0,0.6-0.2,1.1-0.4,1.5l-6.2,11.4l-8.7-13.5 c-0.2-0.3-0.3-0.6-0.3-0.9c0-0.2,0-0.4,0.4-0.6c0.3-0.1,0.9-0.3,2.6-0.3h2.1v-2.5h-16.3v2.5h0.4c1.4,0,2.5,0.2,3.1,0.5 c0.6,0.3,1.1,0.8,1.5,1.4l10.9,17v10.8c0,0.4-0.1,0.8-0.5,1c-0.3,0.3-0.8,0.4-1.6,0.4H135v2.5h17v-2.5h-3.4 c-0.8,0-1.4-0.2-1.9-0.4c-0.2-0.2-0.4-0.5-0.4-1v-11.1l8.2-14.9c0.8-1.4,1.6-2.4,2.4-2.9c0.8-0.5,2-0.8,3.5-0.8h0.4v-2.5h-14.2 V539.8z"></path> <path d="M204.1,564.5l-10.2-27.1l-0.1-0.2h-12.4v2.5h3.4c1.2,0,1.7,0.2,1.9,0.3c0.3,0.2,0.4,0.5,0.4,1v24.4c0,1.9-0.4,3.3-1.1,4 c-0.7,0.7-2.1,1.1-4.2,1.3l-0.3,0v2.5h14.1v-2.5l-0.3,0c-1.6-0.1-2.7-0.3-3.4-0.7c-0.6-0.4-1.1-0.9-1.5-1.6 c-0.3-0.7-0.5-1.8-0.5-3.3v-23.8l11.9,31.6l0.1,0.2h2.1l11.1-31.9v27.9c0,0.4-0.1,0.7-0.5,1c-0.4,0.3-0.9,0.4-1.7,0.4h-3.4v2.5h17 v-2.5h-3.1c-1.2,0-1.8-0.2-2-0.4c-0.4-0.2-0.5-0.6-0.5-1v-28.1c0-0.6,0.2-1.1,0.4-1.3c0.2-0.2,0.7-0.4,1.9-0.4h3.3v-2.5h-12.7 L204.1,564.5z"></path> <path d="M261.9,559.8c-0.9,7.5-4.1,11.1-9.9,11.1h-5.5c-0.7,0-1.2-0.1-1.5-0.3c-0.2-0.2-0.4-0.5-0.4-0.9v-13.7h2.4 c1.7,0,3,0.5,3.9,1.7c1,1.1,1.5,3,1.6,5.6v0.4h2.4v-17.1h-2.4l0,0.3c-0.1,2.3-0.6,4.1-1.5,5.2c-1,1.1-2.2,1.6-3.7,1.6h-2.7v-12.3 c0-0.5,0.1-0.9,0.3-1.1c0.2-0.2,0.5-0.3,1-0.3h6.9c2.1,0,3.8,0.7,5.2,2.1c1.3,1.4,2.3,4.1,2.9,7.7l0,0.3h2.3l-0.7-12.7h-28.8v2.5 h3.3c0.6,0,1.1,0.1,1.3,0.4c0.2,0.2,0.4,0.6,0.4,1.1v28.1c0,0.5-0.1,0.9-0.5,1.2c-0.3,0.2-0.9,0.4-1.7,0.4h-2.8v2.5h29.9l0.6-13.9 h-2.4L261.9,559.8z"></path> <path d="M253.7,529.7c1.2-0.9,1.8-1.9,1.8-2.7c0-0.6-0.2-1.1-0.7-1.6c-0.9-0.9-2.1-1-3.3-0.1c-0.5,0.4-1.3,1.4-2.4,3l-4.3,6.1l1,1 L253.7,529.7z"></path> <path d="M302,570.6c-0.4-0.2-0.7-0.5-1-0.9l-11.1-16l7.2-10.4c0.9-1.3,1.9-2.3,2.9-2.9c0.7-0.4,1.8-0.7,3.1-0.7h0.3v-2.5H290v2.5 h0.4c1.9,0,2.7,0.3,3,0.5c0.5,0.3,0.7,0.7,0.7,1.2c0,0.5-0.3,1.3-0.9,2.3l-4.9,7.4l-6.5-9.5c-0.6-0.9-0.6-1.1-0.6-1.1 c0-0.1,0-0.3,0.4-0.5c0.2-0.1,0.8-0.3,2.3-0.3h2.1v-2.5h-15.3v2.5h0.4c1.2,0,2.1,0.2,2.7,0.5c0.5,0.3,1.2,1,1.9,2l9.6,13.7 l-7.4,10.6c-1,1.5-2.1,2.6-3.2,3.3c-1.1,0.7-2.3,1-3.6,1l-0.4,0v2.5h14.3v-2.5h-1.8c-0.9,0-1.5-0.2-1.9-0.5 c-0.4-0.4-0.6-0.9-0.6-1.6c0-0.8,0.4-1.8,1.2-3l5.1-7.2l7,10.1c0.6,0.8,0.7,1.2,0.7,1.4c0,0.2-0.1,0.3-0.4,0.6 c-0.2,0.1-0.7,0.3-1.8,0.3h-2.3v2.5h14.8v-2.5h-0.4C303.2,570.9,302.5,570.8,302,570.6z"></path> <path d="M309.7,539.8h3.2c1.4,0,2,0.2,2.2,0.5c0.1,0,0.3,0.3,0.3,1.6v26.8c0,1.3-0.2,1.7-0.4,1.8c-0.1,0.1-0.6,0.4-1.9,0.4h-3.5 v2.5h17.1v-2.5h-3.5c-0.9,0-1.5-0.2-1.8-0.5c-0.1-0.1-0.3-0.4-0.3-1.7v-26.8c0-1.2,0.3-1.6,0.4-1.7c0.1-0.1,0.6-0.4,2.1-0.4h3.2 v-2.5h-17.1V539.8z"></path> <path d="M362.9,560.8c-0.6,3.6-1.8,6.3-3.7,8.1c-1.9,1.8-4.2,2.7-7,2.7c-3.2,0-5.7-1.2-7.4-3.4c-2.1-2.7-3.1-6.7-3.1-11.9 c0-6.2,0.9-10.7,2.8-13.3c1.8-2.5,4.1-3.8,7-3.8c2.6,0,4.9,1.2,6.8,3.4c1.6,1.9,2.9,4.8,3.9,8.7l0.1,0.3h2.3l-0.6-15h-2.1 l-1.6,3.2c-1.6-1.2-3.1-2-4.4-2.5c-1.5-0.5-3-0.8-4.6-0.8c-2.8,0-5.5,0.8-7.9,2.4c-2.4,1.6-4.4,4-6,7.1c-1.5,3.1-2.3,6.5-2.3,10.1 c0,3.4,0.8,6.5,2.3,9.3c1.5,2.9,3.5,5,6,6.6c2.5,1.5,5.3,2.3,8.3,2.3c3.7,0,6.9-1.2,9.3-3.5c2.5-2.3,4-5.7,4.5-10l0-0.4H363 L362.9,560.8z"></path> <path d="M404.7,545.7c-1.5-2.9-3.6-5.1-6.3-6.7c-2.7-1.6-5.5-2.4-8.6-2.4c-2.8,0-5.6,0.8-8.1,2.4c-2.6,1.6-4.6,3.9-6.1,6.7 c-1.5,2.8-2.2,6.1-2.2,9.6c0,3.6,0.8,6.9,2.3,9.8c1.5,2.9,3.6,5.2,6.1,6.8c2.6,1.6,5.3,2.4,8.2,2.4c3,0,5.8-0.8,8.5-2.4 c2.6-1.6,4.7-3.9,6.3-6.8c1.5-2.9,2.3-6.1,2.3-9.7C407,551.8,406.2,548.5,404.7,545.7z M395.3,570.1c-1.5,1-3.2,1.6-5.2,1.6 c-2.8,0-5.2-1.2-7.1-3.5c-1.9-2.4-2.9-6.7-2.9-12.9c0-5.7,0.9-9.9,2.8-12.4c1.9-2.5,4.3-3.8,7.3-3.8c1.9,0,3.6,0.6,5.1,1.7 c1.5,1.1,2.7,2.8,3.6,5.1c0.8,2.4,1.3,5.7,1.3,9.8c0,3.8-0.4,7-1.4,9.3C398,567.3,396.7,569,395.3,570.1z"></path> </g> </g> </svg> 